<svg width="16" height="16" viewBox="0 0 16 16" fill="none" xmlns="http://www.w3.org/2000/svg">
<path d="M4.64592 4.64601C4.69236 4.59945 4.74754 4.5625 4.80828 4.5373C4.86903 4.51209 4.93415 4.49911 4.99992 4.49911C5.06568 4.49911 5.13081 4.51209 5.19155 4.5373C5.2523 4.5625 5.30747 4.59945 5.35392 4.64601L7.99992 7.29301L10.6459 4.64601C10.6924 4.59952 10.7476 4.56264 10.8083 4.53749C10.8691 4.51233 10.9342 4.49938 10.9999 4.49938C11.0657 4.49938 11.1308 4.51233 11.1915 4.53749C11.2522 4.56264 11.3074 4.59952 11.3539 4.64601C11.4004 4.6925 11.4373 4.74769 11.4624 4.80842C11.4876 4.86916 11.5005 4.93426 11.5005 5.00001C11.5005 5.06575 11.4876 5.13085 11.4624 5.19159C11.4373 5.25233 11.4004 5.30752 11.3539 5.35401L8.70692 8.00001L11.3539 10.646C11.4004 10.6925 11.4373 10.7477 11.4624 10.8084C11.4876 10.8692 11.5005 10.9343 11.5005 11C11.5005 11.0658 11.4876 11.1309 11.4624 11.1916C11.4373 11.2523 11.4004 11.3075 11.3539 11.354C11.3074 11.4005 11.2522 11.4374 11.1915 11.4625C11.1308 11.4877 11.0657 11.5006 10.9999 11.5006C10.9342 11.5006 10.8691 11.4877 10.8083 11.4625C10.7476 11.4374 10.6924 11.4005 10.6459 11.354L7.99992 8.70701L5.35392 11.354C5.30743 11.4005 5.25224 11.4374 5.1915 11.4625C5.13076 11.4877 5.06566 11.5006 4.99992 11.5006C4.93417 11.5006 4.86907 11.4877 4.80833 11.4625C4.74759 11.4374 4.6924 11.4005 4.64592 11.354C4.59943 11.3075 4.56255 11.2523 4.53739 11.1916C4.51223 11.1309 4.49929 11.0658 4.49929 11C4.49929 10.9343 4.51223 10.8692 4.53739 10.8084C4.56255 10.7477 4.59943 10.6925 4.64592 10.646L7.29292 8.00001L4.64592 5.35401C4.59935 5.30756 4.56241 5.25239 4.5372 5.19164C4.512 5.1309 4.49902 5.06578 4.49902 5.00001C4.49902 4.93424 4.512 4.86912 4.5372 4.80837C4.56241 4.74763 4.59935 4.69245 4.64592 4.64601Z" fill="#fff"/>
</svg>
